<svg width="24" height="24" viewBox="0 0 24 24" fill="none" xmlns="http://www.w3.org/2000/svg">
<path d="M7 18C8.15385 17.2593 9.69231 16.8889 10.4615 16.1481C11.2308 15.4074 8.92308 15.4074 8.92308 11.7037C8.92308 8 12 8 12 8C12 8 15.0769 8 15.0769 11.7037C15.0769 15.4074 12.7692 15.4074 13.5385 16.1481C14.3077 16.8889 15.8462 17.2593 17 18" stroke="#85E449" stroke-width="2" stroke-linecap="round"/>
<path fill-rule="evenodd" clip-rule="evenodd" d="M12 21C16.9706 21 21 16.9706 21 12C21 7.02944 16.9706 3 12 3C7.02944 3 3 7.02944 3 12C3 16.9706 7.02944 21 12 21Z" stroke="#85E449" stroke-width="2"/>
</svg>
