<svg width="24" height="24" viewBox="0 0 24 24" fill="none" xmlns="http://www.w3.org/2000/svg">
<path d="M4 20.5V10.518C4 10.3774 4.05918 10.2433 4.16304 10.1486L11.663 3.30735C11.8539 3.13323 12.1461 3.13323 12.337 3.30735L19.837 10.1486C19.9408 10.2433 20 10.3765 20 10.5171V20.5045C20 20.7806 19.7761 21 19.5 21H4.5C4.22386 21 4 20.7761 4 20.5Z" stroke="#85E449" stroke-width="2"/>
<path d="M9 14.5C9 14.2239 9.22386 14 9.5 14H14.5C14.7761 14 15 14.2239 15 14.5V20.5C15 20.7761 14.7761 21 14.5 21H9.5C9.22386 21 9 20.7761 9 20.5V14.5Z" stroke="#85E449" stroke-width="2"/>
</svg>
