<svg width="24" height="24" viewBox="0 0 24 24" fill="none" xmlns="http://www.w3.org/2000/svg">
<path d="M19.9496 15.2892L20.8477 15.729L19.9496 15.2892ZM17.651 15.7496C18.2923 15.7496 18.9196 15.6853 19.5264 15.5623L19.1293 13.6021C18.6525 13.6987 18.1582 13.7496 17.651 13.7496V15.7496ZM8.25038 6.34902C8.25038 11.5408 12.4592 15.7496 17.651 15.7496V13.7496C13.5637 13.7496 10.2504 10.4363 10.2504 6.34902H8.25038ZM8.43768 4.47356C8.31474 5.08041 8.25038 5.70771 8.25038 6.34902H10.2504C10.2504 5.84182 10.3013 5.34754 10.3979 4.87066L8.43768 4.47356ZM8.27102 3.15229C5.15152 4.6799 3 7.88745 3 11.5994H5C5 8.67982 6.69052 6.15319 9.15061 4.94849L8.27102 3.15229ZM3 11.5994C3 16.7912 7.20879 21 12.4006 21V19C8.31336 19 5 15.6866 5 11.5994H3ZM12.4006 21C16.1126 21 19.3201 18.8485 20.8477 15.729L19.0515 14.8494C17.8468 17.3095 15.3202 19 12.4006 19V21ZM10.3979 4.87066C10.5143 4.29611 10.303 3.74107 9.91597 3.38932C9.51275 3.02285 8.87964 2.85426 8.27102 3.15229L9.15061 4.94849C9.06054 4.9926 8.945 5.01251 8.82639 4.99179C8.71429 4.97221 8.62858 4.92187 8.57083 4.86938C8.46111 4.76966 8.40776 4.62125 8.43768 4.47356L10.3979 4.87066ZM19.5264 15.5623C19.3787 15.5922 19.2303 15.5389 19.1306 15.4292C19.0781 15.3714 19.0278 15.2857 19.0082 15.1736C18.9875 15.055 19.0074 14.9395 19.0515 14.8494L20.8477 15.729C21.1457 15.1204 20.9771 14.4873 20.6107 14.084C20.2589 13.697 19.7039 13.4857 19.1293 13.6021L19.5264 15.5623Z" fill="#ffffff"/>
</svg>
