<svg width="24" height="24" viewBox="0 0 24 24" fill="none" xmlns="http://www.w3.org/2000/svg">
<path d="M11.2836 2.28943C10.4228 2.28943 9.65849 2.84029 9.38627 3.65697L8.97122 4.9021C8.92706 5.03458 8.82913 5.14177 8.70353 5.20279C8.37632 5.36178 8.06231 5.54369 7.76359 5.74645C7.64787 5.825 7.50586 5.85635 7.36884 5.82832L6.0816 5.5649C5.23821 5.39231 4.37902 5.77877 3.94859 6.5243L3.23221 7.7651C2.80178 8.51063 2.8967 9.44794 3.46785 10.092L4.34 11.0756C4.43256 11.18 4.47644 11.3182 4.46656 11.4573C4.45384 11.6366 4.44737 11.8175 4.44737 12C4.44737 12.1824 4.45384 12.3634 4.46656 12.5426C4.47644 12.6817 4.43256 12.82 4.34 12.9243L3.46785 13.9079C2.8967 14.552 2.80178 15.4893 3.23221 16.2348L3.94859 17.4756C4.37902 18.2212 5.23821 18.6076 6.0816 18.435L7.36883 18.1716C7.50585 18.1436 7.64786 18.1749 7.76358 18.2535C8.0623 18.4562 8.37631 18.6382 8.70353 18.7971C8.82913 18.8582 8.92706 18.9654 8.97122 19.0978L9.38627 20.343C9.65849 21.1596 10.4228 21.7105 11.2836 21.7105H12.7164C13.5773 21.7105 14.3415 21.1596 14.6138 20.343L15.0288 19.0978C15.073 18.9654 15.1709 18.8582 15.2965 18.7971C15.6237 18.6382 15.9377 18.4562 16.2364 18.2535C16.3521 18.1749 16.4941 18.1436 16.6312 18.1716L17.9183 18.435C18.7617 18.6076 19.6209 18.2212 20.0514 17.4756L20.7677 16.2348C21.1982 15.4893 21.1032 14.552 20.5321 13.9079L19.66 12.9244C19.5675 12.8201 19.5236 12.6818 19.5335 12.5427C19.5462 12.3634 19.5527 12.1825 19.5527 12C19.5527 11.8175 19.5462 11.6365 19.5335 11.4573C19.5236 11.3181 19.5674 11.1799 19.66 11.0755L20.5321 10.092C21.1032 9.44793 21.1982 8.51062 20.7677 7.76509L20.0514 6.52429C19.6209 5.77876 18.7617 5.39231 17.9183 5.56489L16.6312 5.8283C16.4941 5.85634 16.3521 5.82498 16.2364 5.74643C15.9377 5.54368 15.6237 5.36177 15.2965 5.20279C15.1709 5.14177 15.073 5.03458 15.0288 4.9021L14.6138 3.65697C14.3415 2.84029 13.5773 2.28943 12.7164 2.28943H11.2836Z" stroke="#85E449" stroke-width="2"/>
<path fill-rule="evenodd" clip-rule="evenodd" d="M12 15C13.6569 15 15 13.6568 15 12C15 10.3431 13.6569 8.99997 12 8.99997C10.3432 8.99997 9.00001 10.3431 9.00001 12C9.00001 13.6568 10.3432 15 12 15Z" stroke="#85E449" stroke-width="2"/>
</svg>
