<svg width="24" height="24" viewBox="0 0 24 24" fill="none" xmlns="http://www.w3.org/2000/svg">
<path d="M10 11L10 18M14 11V18M19 8L18 20.25C18 20.7141 17.7893 21.1592 17.4142 21.4874C17.0391 21.8156 16.5304 22 16 22H8C7.46957 22 6.96086 21.8156 6.58579 21.4874C6.21071 21.1592 6 20.7141 6 20.25L5 8H19ZM9 4V3C9 2.44772 9.44772 2 10 2H14C14.5523 2 15 2.44772 15 3V4C15 4.55228 14.5523 5 14 5H10C9.44772 5 9 4.55228 9 4ZM4 7.5V5.5C4 5.22386 4.22386 5 4.5 5H19.5C19.7761 5 20 5.22386 20 5.5V7.5C20 7.77614 19.7761 8 19.5 8H4.5C4.22386 8 4 7.77614 4 7.5Z" stroke="#000000" stroke-width="2" stroke-linecap="round" stroke-linejoin="round"/>
</svg>
